<svg width="100%" height="100%" id="svg" viewBox="0 0 1440 600" xmlns="http://www.w3.org/2000/svg" class="transition duration-300 ease-in-out delay-150"><path d="M 0,600 C 0,600 0,200 0,200 C 100.12440191387557,243.0909090909091 200.24880382775115,286.1818181818182 288,274 C 375.75119617224885,261.8181818181818 451.12918660287085,194.36363636363637 553,158 C 654.8708133971292,121.63636363636364 783.2344497607654,116.36363636363635 886,148 C 988.7655502392346,179.63636363636365 1065.9330143540672,248.1818181818182 1154,263 C 1242.0669856459328,277.8181818181818 1341.0334928229663,238.9090909090909 1440,200 C 1440,200 1440,600 1440,600 Z" stroke="none" stroke-width="0" fill="#8ed1fc" fill-opacity="0.53" class="transition-all duration-300 ease-in-out delay-150 path-0"></path><path d="M 0,600 C 0,600 0,400 0,400 C 93.77033492822966,392.8516746411483 187.54066985645932,385.70334928229664 292,377 C 396.4593301435407,368.29665071770336 511.6076555023924,358.0382775119617 615,360 C 718.3923444976076,361.9617224880383 810.0287081339711,376.14354066985646 893,388 C 975.9712918660289,399.85645933014354 1050.2775119617224,409.3875598086124 1140,411 C 1229.7224880382776,412.6124401913876 1334.8612440191387,406.3062200956938 1440,400 C 1440,400 1440,600 1440,600 Z" stroke="none" stroke-width="0" fill="#8ed1fc" fill-opacity="1" class="transition-all duration-300 ease-in-out delay-150 path-1"></path></svg>